:SAMPLES-PER-SECOND 30
:FULLY-SPECIFIED
:DEGREES
1207
root  15.3474 37.8175 12.9394 -179.99 -68.9003 -167.066
RightUpLeg  -34.1687 2.23904 1.93577
RightLeg  -4.3757 -28.6367 3.93291
RightFoot  -3.99459 -0.277019 3.88409
RightToes  2.32829e-010 0 -3.6325e-017
Spine  -16.1059 -5.28355 8.43351
Spine1  7.40032 -4.16183 -5.11965
HEad  10.6316 -22.8508 -15.3052
LeftShoulder1  0.184092 2.98923 -29.6329
LeftArm  -0.68707 1.84188 -45.1016
LeftForeArm  20.4271 -13.5365 -7.23093
LeftHand  -0.0348062 3.85578 0.924895
RightShoulder  -0.282947 -4.39601 24.4931
RightArm  12.6486 -6.13469 46.2743
RightForeArm  -10.855 25.9719 6.11985
RightHand  -1.00136 8.14795 -8.92552
LeftUpLeg  -14.3805 12.317 5.79198
LeftLeg  30.4137 -15.1555 -9.04607
LeftFoot  -24.1086 1.22112 9.60017
LeftToes  -3.54706e-010 1.16038e-010 5.28031e-012
1208
root  14.131 37.5645 12.3627 179.332 -70.2694 -166.332
RightUpLeg  -34.651 2.50394 2.01002
RightLeg  -4.42611 -28.7787 3.77349
RightFoot  -3.40781 -0.255038 3.04965
RightToes  2.32829e-010 0 -3.6325e-017
Spine  -17.4647 -4.85585 9.10455
Spine1  8.07507 -4.0203 -5.20065
HEad  9.6412 -24.0495 -13.4933
LeftShoulder1  0.163823 3.04714 -29.7439
LeftArm  -0.211612 3.26175 -44.3638
LeftForeArm  20.0869 -13.7814 -7.2096
LeftHand  -0.032762 3.92594 0.988373
RightShoulder  -0.363254 -4.63907 24.9742
RightArm  13.2969 -6.06057 46.0801
RightForeArm  -11.2873 24.4703 5.79047
RightHand  -1.02168 8.39636 -8.94621
LeftUpLeg  -12.5722 11.9049 6.63346
LeftLeg  31.2435 -15.7344 -9.65101
LeftFoot  -25.6693 1.33211 9.34797
LeftToes  -3.54706e-010 1.16038e-010 5.28031e-012
1209
root  12.9278 37.4086 11.7868 177.416 -71.6185 -164.436
RightUpLeg  -34.1982 2.01357 2.50858
RightLeg  -3.81693 -28.5618 4.54021
RightFoot  -0.788808 0.116296 -0.122615
RightToes  2.32829e-010 0 -3.6325e-017
Spine  -17.8017 -4.40414 10.0145
Spine1  8.06903 -4.20764 -4.60608
HEad  5.47953 -20.2366 -10.0263
LeftShoulder1  0.139274 3.11675 -29.8561
LeftArm  0.719082 5.51708 -43.4756
LeftForeArm  19.4103 -14.2863 -7.15534
LeftHand  -0.0349976 4.01959 1.17721
RightShoulder  -0.43553 -4.8505 25.4419
RightArm  14.0583 -6.17562 45.7166
RightForeArm  -11.9451 22.2471 5.43585
RightHand  -1.03341 8.30443 -9.10216
LeftUpLeg  -10.7076 10.8556 7.89832
LeftLeg  31.9082 -15.9735 -10.0699
LeftFoot  -26.2632 1.27211 8.48015
LeftToes  -3.54706e-010 1.16038e-010 5.28031e-012
1210
root  11.7611 37.4735 11.2073 172.201 -72.1136 -158.675
RightUpLeg  -34.0424 1.99411 4.19566
RightLeg  -2.86143 -28.0609 5.19558
RightFoot  7.86867 1.48459 -8.837
RightToes  2.32829e-010 0 -3.6325e-017
Spine  -18.1224 -3.14222 12.806
Spine1  8.38398 -4.27508 -3.54003
HEad  -5.86912 -5.51367 -3.24962
LeftShoulder1  0.112718 3.19584 -30.5133
LeftArm  1.30903 7.71981 -41.9259
LeftForeArm  19.4056 -14.1073 -7.3601
LeftHand  -0.0404469 3.71987 1.50565
RightShoulder  -0.478485 -4.96872 25.8191
RightArm  13.8259 -6.57238 45.2803
RightForeArm  -11.9457 19.0937 5.39797
RightHand  -1.02886 8.55386 -8.91004
LeftUpLeg  -9.03777 10.0163 10.582
LeftLeg  31.937 -16.6066 -10.5178
LeftFoot  -25.6585 0.973965 6.52455
LeftToes  -3.54706e-010 1.16038e-010 5.28031e-012
1211
root  10.4978 37.4479 10.5736 167.723 -71.4901 -153.61
RightUpLeg  -34.5622 -0.638025 7.69673
RightLeg  1.44245 -23.9953 3.87932
RightFoot  12.6318 1.78231 -7.96347
RightToes  2.32829e-010 0 -3.6325e-017
Spine  -18.8663 -1.82223 16.3026
Spine1  8.79025 -3.76391 -3.96792
HEad  -4.97737 -7.44928 -4.11547
LeftShoulder1  0.0453179 3.3816 -30.8963
LeftArm  -0.110206 9.84126 -40.7409
LeftForeArm  21.3234 -13.2033 -7.49408
LeftHand  -0.0343695 3.73415 1.03119
RightShoulder  -0.492771 -4.99153 26.2875
RightArm  11.8279 -6.38802 45.0132
RightForeArm  -9.85241 14.9505 5.71742
RightHand  -0.924497 7.48536 -8.66633
LeftUpLeg  -7.97975 9.69048 13.293
LeftLeg  33.945 -16.8193 -11.4733
LeftFoot  -24.6023 0.594703 3.84429
LeftToes  -3.54706e-010 1.16038e-010 5.28031e-012
1212
root  9.23402 37.4647 9.99415 165.779 -69.6353 -150.872
RightUpLeg  -36.4056 -6.52025 14.7819
RightLeg  8.44108 -14.1459 0.47416
RightFoot  10.6344 1.74966 -8.61934
RightToes  2.32829e-010 0 -3.6325e-017
Spine  -18.9262 -0.0186842 20.4584
Spine1  8.27811 -2.50959 -5.12058
HEad  -4.91803 -8.25338 -4.34489
LeftShoulder1  0.0466996 3.37724 -30.8413
LeftArm  -1.25005 13.2981 -39.8866
LeftForeArm  22.3958 -13.0712 -7.24494
LeftHand  -0.025838 4.27576 0.228703
RightShoulder  -0.528826 -5.09294 26.4822
RightArm  9.42689 -6.4848 44.8628
RightForeArm  -7.4878 10.455 5.95731
RightHand  -0.875768 7.00042 -8.53131
LeftUpLeg  -7.85898 10.3166 15.4415
LeftLeg  37.3924 -16.3882 -12.6825
LeftFoot  -21.6974 0.157393 0.242463
LeftToes  -3.54706e-010 1.16038e-010 5.28031e-012
